# xmcd
#
# Track frame offsets:
#	150
#	23132
#	49510
#	63287
#	88187
#	105657
#	116655
#	140877
#	150915
#	167545
#	179405
#	196245
#	211237
#	228305
#	242612
#	273697
#	294852
#
# Disc length: 4337 seconds
#
# Revision: 0
# Processed by: cddbd v1.5.1PL0 Copyright (c) Steve Scherf et al.
# Submitted via: dBpowerAMP V4.0
#
DISCID=e710ef11
DTITLE=Country Joe McDonald - Something Borrowed, Something New
DYEAR=1900
DGENRE=Country
TTITLE0=Entertainment Is My Business
TTITLE1=Who Am I?
TTITLE2=Kiss My Ass
TTITLE3=Free Some Day
TTITLE4=Standing At The Crossroads
TTITLE5=Your Last few Records Just Didn't Make It
TTITLE6=Power Plant Blues
TTITLE7=Thinking of John Fahey
TTITLE8=Sunshine
TTITLE9=War Hero
TTITLE10=Mourning Blues
TTITLE11=Here I Go Again
TTITLE12=Hold On It's Coming
TTITLE13=Starship Ride
TTITLE14=Blues For Michael
TTITLE15=Carry On
TTITLE16=Got It All Together
EXTD=
EXTT0=
EXTT1=
EXTT2=
EXTT3=
EXTT4=
EXTT5=
EXTT6=
EXTT7=
EXTT8=
EXTT9=
EXTT10=
EXTT11=
EXTT12=
EXTT13=
EXTT14=
EXTT15=
EXTT16=
PLAYORDER=
